# xmcd
#
# Track frame offsets: 
#        150
#        23856
#        37946
#        52096
#        65241
#        77445
#        90049
#        100620
#        114396
#        131597
#        142008
#        160001
#        174933
#        188640
#        200109
#
# Disc length: 2866 seconds
#
# Revision: 3
# Processed by: cddbd v1.5.1PL0 Copyright (c) Steve Scherf et al.
# Submitted via: ExactAudioCopy v0.90b4
#
DISCID=bd0b300f
DTITLE=Various Artist - The Bossa Nova Years
DYEAR=2004
DGENRE=Jazz
TTITLE0=Stan Getz and Joao Gilberto - The Girl From Ipanema
TTITLE1=Walter Wanderley - Summer Samba
TTITLE2=Elis Regina and Antonio Carlos Jobim - Aguas de Marzo
TTITLE3=Antonio Carlos Jobim - Wave
TTITLE4=Yutaka Yokokura and Oscar Castro Neves - Mais Que Nada
TTITLE5=Antonio Carlos Jobim - Desafinado
TTITLE6=Astrud Gilberto - Agua De Beber
TTITLE7=Walter Wanderley - D Barquinho
TTITLE8=Sergio Mendes - Usted Abuso
TTITLE9=Antonio Carlos Jobim - Samba De Una Sola Nota
TTITLE10=Yutaka Yokokura and Oscar Castro Neves - Zazueira
TTITLE11=Antonio Carlos Jobim - Meditación
TTITLE12=Elis Regina - Acuarela Do Brasil
TTITLE13=Stan Getz - O Pato
TTITLE14=Luiz Bonfá - Manha De Carnaval
EXTD=YEAR: 2004
EXTT0=
EXTT1=
EXTT2=
EXTT3=
EXTT4=
EXTT5=
EXTT6=
EXTT7=
EXTT8=
EXTT9=
EXTT10=
EXTT11=
EXTT12=
EXTT13=
EXTT14=
PLAYORDER=
